<?xml version="1.0" encoding="utf-8" standalone="no"?>
<!DOCTYPE svg PUBLIC "-//W3C//DTD SVG 1.1//EN"
  "http://www.w3.org/Graphics/SVG/1.1/DTD/svg11.dtd">
<svg xmlns:xlink="http://www.w3.org/1999/xlink" width="460.8pt" height="345.6pt" viewBox="0 0 460.8 345.6" xmlns="http://www.w3.org/2000/svg" version="1.1">
 <metadata>
  <rdf:RDF xmlns:dc="http://purl.org/dc/elements/1.1/" xmlns:cc="http://creativecommons.org/ns#" xmlns:rdf="http://www.w3.org/1999/02/22-rdf-syntax-ns#">
   <cc:Work>
    <dc:type rdf:resource="http://purl.org/dc/dcmitype/StillImage"/>
    <dc:date>2023-04-30T14:28:51.392973</dc:date>
    <dc:format>image/svg+xml</dc:format>
    <dc:creator>
     <cc:Agent>
      <dc:title>Matplotlib v3.7.1, https://matplotlib.org/</dc:title>
     </cc:Agent>
    </dc:creator>
   </cc:Work>
  </rdf:RDF>
 </metadata>
 <defs>
  <style type="text/css">*{stroke-linejoin: round; stroke-linecap: butt}</style>
 </defs>
 <g id="figure_1">
  <g id="patch_1">
   <path d="M 0 345.6 
L 460.8 345.6 
L 460.8 0 
L 0 0 
z
" style="fill: #ffffff"/>
  </g>
  <g id="axes_1">
   <g id="patch_2">
    <path d="M 57.6 307.584 
L 414.72 307.584 
L 414.72 41.472 
L 57.6 41.472 
z
" style="fill: #ffffff"/>
   </g>
   <g id="patch_3">
    <path d="M 236.16 73.225745 
Q 236.16 78.312384 236.16 82.280989 
" clip-path="url(#pcef000eb9c)" style="fill: none; stroke: #000000; stroke-linecap: round"/>
    <path d="M 238.16 78.280989 
L 236.16 82.280989 
L 234.16 78.280989 
z
" clip-path="url(#pcef000eb9c)" style="stroke: #000000; stroke-linecap: round"/>
   </g>
   <g id="patch_4">
    <path d="M 244.759157 65.594182 
Q 293.549769 71.437251 341.230278 77.147377 
" clip-path="url(#pcef000eb9c)" style="fill: none; stroke: #000000; stroke-linecap: round"/>
    <path d="M 337.496474 74.685933 
L 341.230278 77.147377 
L 337.02084 78.657554 
z
" clip-path="url(#pcef000eb9c)" style="stroke: #000000; stroke-linecap: round"/>
   </g>
   <g id="patch_5">
    <path d="M 236.16 100.716654 
Q 236.16 105.803293 236.16 109.771898 
" clip-path="url(#pcef000eb9c)" style="fill: none; stroke: #000000; stroke-linecap: round"/>
    <path d="M 238.16 105.771898 
L 236.16 109.771898 
L 234.16 105.771898 
z
" clip-path="url(#pcef000eb9c)" style="stroke: #000000; stroke-linecap: round"/>
   </g>
   <g id="patch_6">
    <path d="M 244.759157 93.085091 
Q 293.549769 98.92816 341.230278 104.638286 
" clip-path="url(#pcef000eb9c)" style="fill: none; stroke: #000000; stroke-linecap: round"/>
    <path d="M 337.496474 102.176842 
L 341.230278 104.638286 
L 337.02084 106.148463 
z
" clip-path="url(#pcef000eb9c)" style="stroke: #000000; stroke-linecap: round"/>
   </g>
   <g id="patch_7">
    <path d="M 227.535823 120.349482 
Q 162.37305 126.419079 98.323492 132.384986 
" clip-path="url(#pcef000eb9c)" style="fill: none; stroke: #000000; stroke-linecap: round"/>
    <path d="M 102.49174 134.005391 
L 98.323492 132.384986 
L 102.120765 130.022631 
z
" clip-path="url(#pcef000eb9c)" style="stroke: #000000; stroke-linecap: round"/>
   </g>
   <g id="patch_8">
    <path d="M 244.784177 120.349482 
Q 309.94695 126.419079 373.996508 132.384986 
" clip-path="url(#pcef000eb9c)" style="fill: none; stroke: #000000; stroke-linecap: round"/>
    <path d="M 370.199235 130.022631 
L 373.996508 132.384986 
L 369.82826 134.005391 
z
" clip-path="url(#pcef000eb9c)" style="stroke: #000000; stroke-linecap: round"/>
   </g>
   <g id="patch_9">
    <path d="M 97.213929 134.094937 
Q 162.376702 140.164534 226.42626 146.13044 
" clip-path="url(#pcef000eb9c)" style="fill: none; stroke: #000000; stroke-linecap: round"/>
    <path d="M 222.628987 143.768085 
L 226.42626 146.13044 
L 222.258012 147.750845 
z
" clip-path="url(#pcef000eb9c)" style="stroke: #000000; stroke-linecap: round"/>
   </g>
   <g id="patch_10">
    <path d="M 236.16 155.698472 
Q 236.16 160.785111 236.16 164.753716 
" clip-path="url(#pcef000eb9c)" style="fill: none; stroke: #000000; stroke-linecap: round"/>
    <path d="M 238.16 160.753716 
L 236.16 164.753716 
L 234.16 160.753716 
z
" clip-path="url(#pcef000eb9c)" style="stroke: #000000; stroke-linecap: round"/>
   </g>
   <g id="patch_11">
    <path d="M 244.759157 148.066909 
Q 293.549769 153.909979 341.230278 159.620104 
" clip-path="url(#pcef000eb9c)" style="fill: none; stroke: #000000; stroke-linecap: round"/>
    <path d="M 337.496474 157.15866 
L 341.230278 159.620104 
L 337.02084 161.130281 
z
" clip-path="url(#pcef000eb9c)" style="stroke: #000000; stroke-linecap: round"/>
   </g>
   <g id="patch_12">
    <path d="M 227.535823 175.3313 
Q 162.37305 181.400897 98.323492 187.366804 
" clip-path="url(#pcef000eb9c)" style="fill: none; stroke: #000000; stroke-linecap: round"/>
    <path d="M 102.49174 188.987209 
L 98.323492 187.366804 
L 102.120765 185.004449 
z
" clip-path="url(#pcef000eb9c)" style="stroke: #000000; stroke-linecap: round"/>
   </g>
   <g id="patch_13">
    <path d="M 244.784177 175.3313 
Q 309.94695 181.400897 373.996508 187.366804 
" clip-path="url(#pcef000eb9c)" style="fill: none; stroke: #000000; stroke-linecap: round"/>
    <path d="M 370.199235 185.004449 
L 373.996508 187.366804 
L 369.82826 188.987209 
z
" clip-path="url(#pcef000eb9c)" style="stroke: #000000; stroke-linecap: round"/>
   </g>
   <g id="patch_14">
    <path d="M 97.213929 189.076755 
Q 162.376702 195.146352 226.42626 201.112258 
" clip-path="url(#pcef000eb9c)" style="fill: none; stroke: #000000; stroke-linecap: round"/>
    <path d="M 222.628987 198.749903 
L 226.42626 201.112258 
L 222.258012 202.732663 
z
" clip-path="url(#pcef000eb9c)" style="stroke: #000000; stroke-linecap: round"/>
   </g>
   <g id="patch_15">
    <path d="M 236.16 210.68029 
Q 236.16 215.766929 236.16 219.735534 
" clip-path="url(#pcef000eb9c)" style="fill: none; stroke: #000000; stroke-linecap: round"/>
    <path d="M 238.16 215.735534 
L 236.16 219.735534 
L 234.16 215.735534 
z
" clip-path="url(#pcef000eb9c)" style="stroke: #000000; stroke-linecap: round"/>
   </g>
   <g id="patch_16">
    <path d="M 244.759157 203.048728 
Q 293.549769 208.891797 341.230278 214.601922 
" clip-path="url(#pcef000eb9c)" style="fill: none; stroke: #000000; stroke-linecap: round"/>
    <path d="M 337.496474 212.140478 
L 341.230278 214.601922 
L 337.02084 216.112099 
z
" clip-path="url(#pcef000eb9c)" style="stroke: #000000; stroke-linecap: round"/>
   </g>
   <g id="patch_17">
    <path d="M 227.535823 230.313119 
Q 162.37305 236.382716 98.323492 242.348622 
" clip-path="url(#pcef000eb9c)" style="fill: none; stroke: #000000; stroke-linecap: round"/>
    <path d="M 102.49174 243.969027 
L 98.323492 242.348622 
L 102.120765 239.986267 
z
" clip-path="url(#pcef000eb9c)" style="stroke: #000000; stroke-linecap: round"/>
   </g>
   <g id="patch_18">
    <path d="M 244.784177 230.313119 
Q 309.94695 236.382716 373.996508 242.348622 
" clip-path="url(#pcef000eb9c)" style="fill: none; stroke: #000000; stroke-linecap: round"/>
    <path d="M 370.199235 239.986267 
L 373.996508 242.348622 
L 369.82826 243.969027 
z
" clip-path="url(#pcef000eb9c)" style="stroke: #000000; stroke-linecap: round"/>
   </g>
   <g id="patch_19">
    <path d="M 97.213929 244.058573 
Q 162.376702 250.12817 226.42626 256.094076 
" clip-path="url(#pcef000eb9c)" style="fill: none; stroke: #000000; stroke-linecap: round"/>
    <path d="M 222.628987 253.731722 
L 226.42626 256.094076 
L 222.258012 257.714482 
z
" clip-path="url(#pcef000eb9c)" style="stroke: #000000; stroke-linecap: round"/>
   </g>
   <g id="patch_20">
    <path d="M 236.16 265.662109 
Q 236.16 270.748747 236.16 274.717352 
" clip-path="url(#pcef000eb9c)" style="fill: none; stroke: #000000; stroke-linecap: round"/>
    <path d="M 238.16 270.717352 
L 236.16 274.717352 
L 234.16 270.717352 
z
" clip-path="url(#pcef000eb9c)" style="stroke: #000000; stroke-linecap: round"/>
   </g>
   <g id="patch_21">
    <path d="M 244.759157 258.030546 
Q 293.549769 263.873615 341.230278 269.58374 
" clip-path="url(#pcef000eb9c)" style="fill: none; stroke: #000000; stroke-linecap: round"/>
    <path d="M 337.496474 267.122296 
L 341.230278 269.58374 
L 337.02084 271.093917 
z
" clip-path="url(#pcef000eb9c)" style="stroke: #000000; stroke-linecap: round"/>
   </g>
   <g id="patch_22">
    <path d="M 342.337702 271.776 
Q 293.547091 277.619069 245.866581 283.329195 
" clip-path="url(#pcef000eb9c)" style="fill: none; stroke: #000000; stroke-linecap: round"/>
    <path d="M 250.076019 284.839372 
L 245.866581 283.329195 
L 249.600385 280.867751 
z
" clip-path="url(#pcef000eb9c)" style="stroke: #000000; stroke-linecap: round"/>
   </g>
   <g id="patch_23">
    <path d="M 375.106071 244.058573 
Q 309.943298 250.12817 245.89374 256.094076 
" clip-path="url(#pcef000eb9c)" style="fill: none; stroke: #000000; stroke-linecap: round"/>
    <path d="M 250.061988 257.714482 
L 245.89374 256.094076 
L 249.691013 253.731722 
z
" clip-path="url(#pcef000eb9c)" style="stroke: #000000; stroke-linecap: round"/>
   </g>
   <g id="patch_24">
    <path d="M 342.337702 216.794182 
Q 293.547091 222.637251 245.866581 228.347377 
" clip-path="url(#pcef000eb9c)" style="fill: none; stroke: #000000; stroke-linecap: round"/>
    <path d="M 250.076019 229.857554 
L 245.866581 228.347377 
L 249.600385 225.885933 
z
" clip-path="url(#pcef000eb9c)" style="stroke: #000000; stroke-linecap: round"/>
   </g>
   <g id="patch_25">
    <path d="M 375.106071 189.076755 
Q 309.943298 195.146352 245.89374 201.112258 
" clip-path="url(#pcef000eb9c)" style="fill: none; stroke: #000000; stroke-linecap: round"/>
    <path d="M 250.061988 202.732663 
L 245.89374 201.112258 
L 249.691013 198.749903 
z
" clip-path="url(#pcef000eb9c)" style="stroke: #000000; stroke-linecap: round"/>
   </g>
   <g id="patch_26">
    <path d="M 342.337702 161.812364 
Q 293.547091 167.655433 245.866581 173.365559 
" clip-path="url(#pcef000eb9c)" style="fill: none; stroke: #000000; stroke-linecap: round"/>
    <path d="M 250.076019 174.875735 
L 245.866581 173.365559 
L 249.600385 170.904115 
z
" clip-path="url(#pcef000eb9c)" style="stroke: #000000; stroke-linecap: round"/>
   </g>
   <g id="patch_27">
    <path d="M 375.106071 134.094937 
Q 309.943298 140.164534 245.89374 146.13044 
" clip-path="url(#pcef000eb9c)" style="fill: none; stroke: #000000; stroke-linecap: round"/>
    <path d="M 250.061988 147.750845 
L 245.89374 146.13044 
L 249.691013 143.768085 
z
" clip-path="url(#pcef000eb9c)" style="stroke: #000000; stroke-linecap: round"/>
   </g>
   <g id="patch_28">
    <path d="M 342.337702 106.830546 
Q 293.547091 112.673615 245.866581 118.38374 
" clip-path="url(#pcef000eb9c)" style="fill: none; stroke: #000000; stroke-linecap: round"/>
    <path d="M 250.076019 119.893917 
L 245.866581 118.38374 
L 249.600385 115.922296 
z
" clip-path="url(#pcef000eb9c)" style="stroke: #000000; stroke-linecap: round"/>
   </g>
   <g id="patch_29">
    <path d="M 342.337702 79.339637 
Q 293.547091 85.182706 245.866581 90.892831 
" clip-path="url(#pcef000eb9c)" style="fill: none; stroke: #000000; stroke-linecap: round"/>
    <path d="M 250.076019 92.403008 
L 245.866581 90.892831 
L 249.600385 88.431387 
z
" clip-path="url(#pcef000eb9c)" style="stroke: #000000; stroke-linecap: round"/>
   </g>
   <g id="matplotlib.axis_1">
    <g id="xtick_1"/>
    <g id="xtick_2"/>
    <g id="xtick_3"/>
    <g id="xtick_4"/>
    <g id="xtick_5"/>
    <g id="xtick_6"/>
    <g id="xtick_7"/>
    <g id="xtick_8"/>
    <g id="xtick_9"/>
   </g>
   <g id="matplotlib.axis_2">
    <g id="ytick_1"/>
    <g id="ytick_2"/>
    <g id="ytick_3"/>
    <g id="ytick_4"/>
    <g id="ytick_5"/>
    <g id="ytick_6"/>
    <g id="ytick_7"/>
   </g>
   <g id="PathCollection_1">
    <defs>
     <path id="mf36337cb10" d="M 0 8.660254 
C 2.296726 8.660254 4.499694 7.747755 6.123724 6.123724 
C 7.747755 4.499694 8.660254 2.296726 8.660254 0 
C 8.660254 -2.296726 7.747755 -4.499694 6.123724 -6.123724 
C 4.499694 -7.747755 2.296726 -8.660254 0 -8.660254 
C -2.296726 -8.660254 -4.499694 -7.747755 -6.123724 -6.123724 
C -7.747755 -4.499694 -8.660254 -2.296726 -8.660254 0 
C -8.660254 2.296726 -7.747755 4.499694 -6.123724 6.123724 
C -4.499694 7.747755 -2.296726 8.660254 0 8.660254 
z
" style="stroke: #1f78b4"/>
    </defs>
    <g clip-path="url(#pcef000eb9c)">
     <use xlink:href="#mf36337cb10" x="236.16" y="64.564364" style="fill: #1f78b4; stroke: #1f78b4"/>
     <use xlink:href="#mf36337cb10" x="236.16" y="92.055273" style="fill: #1f78b4; stroke: #1f78b4"/>
     <use xlink:href="#mf36337cb10" x="236.16" y="119.546182" style="fill: #1f78b4; stroke: #1f78b4"/>
     <use xlink:href="#mf36337cb10" x="88.589752" y="133.291636" style="fill: #1f78b4; stroke: #1f78b4"/>
     <use xlink:href="#mf36337cb10" x="236.16" y="147.037091" style="fill: #1f78b4; stroke: #1f78b4"/>
     <use xlink:href="#mf36337cb10" x="236.16" y="174.528" style="fill: #1f78b4; stroke: #1f78b4"/>
     <use xlink:href="#mf36337cb10" x="88.589752" y="188.273455" style="fill: #1f78b4; stroke: #1f78b4"/>
     <use xlink:href="#mf36337cb10" x="236.16" y="202.018909" style="fill: #1f78b4; stroke: #1f78b4"/>
     <use xlink:href="#mf36337cb10" x="236.16" y="229.509818" style="fill: #1f78b4; stroke: #1f78b4"/>
     <use xlink:href="#mf36337cb10" x="88.589752" y="243.255273" style="fill: #1f78b4; stroke: #1f78b4"/>
     <use xlink:href="#mf36337cb10" x="236.16" y="257.000727" style="fill: #1f78b4; stroke: #1f78b4"/>
     <use xlink:href="#mf36337cb10" x="236.16" y="284.491636" style="fill: #1f78b4; stroke: #1f78b4"/>
     <use xlink:href="#mf36337cb10" x="350.93686" y="270.746182" style="fill: #1f78b4; stroke: #1f78b4"/>
     <use xlink:href="#mf36337cb10" x="383.730248" y="243.255273" style="fill: #1f78b4; stroke: #1f78b4"/>
     <use xlink:href="#mf36337cb10" x="350.93686" y="215.764364" style="fill: #1f78b4; stroke: #1f78b4"/>
     <use xlink:href="#mf36337cb10" x="383.730248" y="188.273455" style="fill: #1f78b4; stroke: #1f78b4"/>
     <use xlink:href="#mf36337cb10" x="350.93686" y="160.782545" style="fill: #1f78b4; stroke: #1f78b4"/>
     <use xlink:href="#mf36337cb10" x="383.730248" y="133.291636" style="fill: #1f78b4; stroke: #1f78b4"/>
     <use xlink:href="#mf36337cb10" x="350.93686" y="105.800727" style="fill: #1f78b4; stroke: #1f78b4"/>
     <use xlink:href="#mf36337cb10" x="350.93686" y="78.309818" style="fill: #1f78b4; stroke: #1f78b4"/>
    </g>
   </g>
   <g id="patch_30">
    <path d="M 57.6 307.584 
L 57.6 41.472 
" style="fill: none; stroke: #000000; stroke-width: 0.8; stroke-linejoin: miter; stroke-linecap: square"/>
   </g>
   <g id="patch_31">
    <path d="M 414.72 307.584 
L 414.72 41.472 
" style="fill: none; stroke: #000000; stroke-width: 0.8; stroke-linejoin: miter; stroke-linecap: square"/>
   </g>
   <g id="patch_32">
    <path d="M 57.6 307.584 
L 414.72 307.584 
" style="fill: none; stroke: #000000; stroke-width: 0.8; stroke-linejoin: miter; stroke-linecap: square"/>
   </g>
   <g id="patch_33">
    <path d="M 57.6 41.472 
L 414.72 41.472 
" style="fill: none; stroke: #000000; stroke-width: 0.8; stroke-linejoin: miter; stroke-linecap: square"/>
   </g>
   <g id="text_1">
    <g clip-path="url(#pcef000eb9c)">
     <!-- 0 -->
     <g transform="translate(232.3425 67.875614) scale(0.12 -0.12)">
      <defs>
       <path id="DejaVuSans-30" d="M 2034 4250 
Q 1547 4250 1301 3770 
Q 1056 3291 1056 2328 
Q 1056 1369 1301 889 
Q 1547 409 2034 409 
Q 2525 409 2770 889 
Q 3016 1369 3016 2328 
Q 3016 3291 2770 3770 
Q 2525 4250 2034 4250 
z
M 2034 4750 
Q 2819 4750 3233 4129 
Q 3647 3509 3647 2328 
Q 3647 1150 3233 529 
Q 2819 -91 2034 -91 
Q 1250 -91 836 529 
Q 422 1150 422 2328 
Q 422 3509 836 4129 
Q 1250 4750 2034 4750 
z
" transform="scale(0.015625)"/>
      </defs>
      <use xlink:href="#DejaVuSans-30"/>
     </g>
    </g>
   </g>
   <g id="text_2">
    <g clip-path="url(#pcef000eb9c)">
     <!-- 1 -->
     <g transform="translate(232.3425 95.366523) scale(0.12 -0.12)">
      <defs>
       <path id="DejaVuSans-31" d="M 794 531 
L 1825 531 
L 1825 4091 
L 703 3866 
L 703 4441 
L 1819 4666 
L 2450 4666 
L 2450 531 
L 3481 531 
L 3481 0 
L 794 0 
L 794 531 
z
" transform="scale(0.015625)"/>
      </defs>
      <use xlink:href="#DejaVuSans-31"/>
     </g>
    </g>
   </g>
   <g id="text_3">
    <g clip-path="url(#pcef000eb9c)">
     <!-- 2 -->
     <g transform="translate(232.3425 122.857432) scale(0.12 -0.12)">
      <defs>
       <path id="DejaVuSans-32" d="M 1228 531 
L 3431 531 
L 3431 0 
L 469 0 
L 469 531 
Q 828 903 1448 1529 
Q 2069 2156 2228 2338 
Q 2531 2678 2651 2914 
Q 2772 3150 2772 3378 
Q 2772 3750 2511 3984 
Q 2250 4219 1831 4219 
Q 1534 4219 1204 4116 
Q 875 4013 500 3803 
L 500 4441 
Q 881 4594 1212 4672 
Q 1544 4750 1819 4750 
Q 2544 4750 2975 4387 
Q 3406 4025 3406 3419 
Q 3406 3131 3298 2873 
Q 3191 2616 2906 2266 
Q 2828 2175 2409 1742 
Q 1991 1309 1228 531 
z
" transform="scale(0.015625)"/>
      </defs>
      <use xlink:href="#DejaVuSans-32"/>
     </g>
    </g>
   </g>
   <g id="text_4">
    <g clip-path="url(#pcef000eb9c)">
     <!-- 3 -->
     <g transform="translate(84.772252 136.602886) scale(0.12 -0.12)">
      <defs>
       <path id="DejaVuSans-33" d="M 2597 2516 
Q 3050 2419 3304 2112 
Q 3559 1806 3559 1356 
Q 3559 666 3084 287 
Q 2609 -91 1734 -91 
Q 1441 -91 1130 -33 
Q 819 25 488 141 
L 488 750 
Q 750 597 1062 519 
Q 1375 441 1716 441 
Q 2309 441 2620 675 
Q 2931 909 2931 1356 
Q 2931 1769 2642 2001 
Q 2353 2234 1838 2234 
L 1294 2234 
L 1294 2753 
L 1863 2753 
Q 2328 2753 2575 2939 
Q 2822 3125 2822 3475 
Q 2822 3834 2567 4026 
Q 2313 4219 1838 4219 
Q 1578 4219 1281 4162 
Q 984 4106 628 3988 
L 628 4550 
Q 988 4650 1302 4700 
Q 1616 4750 1894 4750 
Q 2613 4750 3031 4423 
Q 3450 4097 3450 3541 
Q 3450 3153 3228 2886 
Q 3006 2619 2597 2516 
z
" transform="scale(0.015625)"/>
      </defs>
      <use xlink:href="#DejaVuSans-33"/>
     </g>
    </g>
   </g>
   <g id="text_5">
    <g clip-path="url(#pcef000eb9c)">
     <!-- 4 -->
     <g transform="translate(232.3425 150.348341) scale(0.12 -0.12)">
      <defs>
       <path id="DejaVuSans-34" d="M 2419 4116 
L 825 1625 
L 2419 1625 
L 2419 4116 
z
M 2253 4666 
L 3047 4666 
L 3047 1625 
L 3713 1625 
L 3713 1100 
L 3047 1100 
L 3047 0 
L 2419 0 
L 2419 1100 
L 313 1100 
L 313 1709 
L 2253 4666 
z
" transform="scale(0.015625)"/>
      </defs>
      <use xlink:href="#DejaVuSans-34"/>
     </g>
    </g>
   </g>
   <g id="text_6">
    <g clip-path="url(#pcef000eb9c)">
     <!-- 5 -->
     <g transform="translate(232.3425 177.83925) scale(0.12 -0.12)">
      <defs>
       <path id="DejaVuSans-35" d="M 691 4666 
L 3169 4666 
L 3169 4134 
L 1269 4134 
L 1269 2991 
Q 1406 3038 1543 3061 
Q 1681 3084 1819 3084 
Q 2600 3084 3056 2656 
Q 3513 2228 3513 1497 
Q 3513 744 3044 326 
Q 2575 -91 1722 -91 
Q 1428 -91 1123 -41 
Q 819 9 494 109 
L 494 744 
Q 775 591 1075 516 
Q 1375 441 1709 441 
Q 2250 441 2565 725 
Q 2881 1009 2881 1497 
Q 2881 1984 2565 2268 
Q 2250 2553 1709 2553 
Q 1456 2553 1204 2497 
Q 953 2441 691 2322 
L 691 4666 
z
" transform="scale(0.015625)"/>
      </defs>
      <use xlink:href="#DejaVuSans-35"/>
     </g>
    </g>
   </g>
   <g id="text_7">
    <g clip-path="url(#pcef000eb9c)">
     <!-- 6 -->
     <g transform="translate(84.772252 191.584705) scale(0.12 -0.12)">
      <defs>
       <path id="DejaVuSans-36" d="M 2113 2584 
Q 1688 2584 1439 2293 
Q 1191 2003 1191 1497 
Q 1191 994 1439 701 
Q 1688 409 2113 409 
Q 2538 409 2786 701 
Q 3034 994 3034 1497 
Q 3034 2003 2786 2293 
Q 2538 2584 2113 2584 
z
M 3366 4563 
L 3366 3988 
Q 3128 4100 2886 4159 
Q 2644 4219 2406 4219 
Q 1781 4219 1451 3797 
Q 1122 3375 1075 2522 
Q 1259 2794 1537 2939 
Q 1816 3084 2150 3084 
Q 2853 3084 3261 2657 
Q 3669 2231 3669 1497 
Q 3669 778 3244 343 
Q 2819 -91 2113 -91 
Q 1303 -91 875 529 
Q 447 1150 447 2328 
Q 447 3434 972 4092 
Q 1497 4750 2381 4750 
Q 2619 4750 2861 4703 
Q 3103 4656 3366 4563 
z
" transform="scale(0.015625)"/>
      </defs>
      <use xlink:href="#DejaVuSans-36"/>
     </g>
    </g>
   </g>
   <g id="text_8">
    <g clip-path="url(#pcef000eb9c)">
     <!-- 7 -->
     <g transform="translate(232.3425 205.330159) scale(0.12 -0.12)">
      <defs>
       <path id="DejaVuSans-37" d="M 525 4666 
L 3525 4666 
L 3525 4397 
L 1831 0 
L 1172 0 
L 2766 4134 
L 525 4134 
L 525 4666 
z
" transform="scale(0.015625)"/>
      </defs>
      <use xlink:href="#DejaVuSans-37"/>
     </g>
    </g>
   </g>
   <g id="text_9">
    <g clip-path="url(#pcef000eb9c)">
     <!-- 8 -->
     <g transform="translate(232.3425 232.821068) scale(0.12 -0.12)">
      <defs>
       <path id="DejaVuSans-38" d="M 2034 2216 
Q 1584 2216 1326 1975 
Q 1069 1734 1069 1313 
Q 1069 891 1326 650 
Q 1584 409 2034 409 
Q 2484 409 2743 651 
Q 3003 894 3003 1313 
Q 3003 1734 2745 1975 
Q 2488 2216 2034 2216 
z
M 1403 2484 
Q 997 2584 770 2862 
Q 544 3141 544 3541 
Q 544 4100 942 4425 
Q 1341 4750 2034 4750 
Q 2731 4750 3128 4425 
Q 3525 4100 3525 3541 
Q 3525 3141 3298 2862 
Q 3072 2584 2669 2484 
Q 3125 2378 3379 2068 
Q 3634 1759 3634 1313 
Q 3634 634 3220 271 
Q 2806 -91 2034 -91 
Q 1263 -91 848 271 
Q 434 634 434 1313 
Q 434 1759 690 2068 
Q 947 2378 1403 2484 
z
M 1172 3481 
Q 1172 3119 1398 2916 
Q 1625 2713 2034 2713 
Q 2441 2713 2670 2916 
Q 2900 3119 2900 3481 
Q 2900 3844 2670 4047 
Q 2441 4250 2034 4250 
Q 1625 4250 1398 4047 
Q 1172 3844 1172 3481 
z
" transform="scale(0.015625)"/>
      </defs>
      <use xlink:href="#DejaVuSans-38"/>
     </g>
    </g>
   </g>
   <g id="text_10">
    <g clip-path="url(#pcef000eb9c)">
     <!-- 9 -->
     <g transform="translate(84.772252 246.566523) scale(0.12 -0.12)">
      <defs>
       <path id="DejaVuSans-39" d="M 703 97 
L 703 672 
Q 941 559 1184 500 
Q 1428 441 1663 441 
Q 2288 441 2617 861 
Q 2947 1281 2994 2138 
Q 2813 1869 2534 1725 
Q 2256 1581 1919 1581 
Q 1219 1581 811 2004 
Q 403 2428 403 3163 
Q 403 3881 828 4315 
Q 1253 4750 1959 4750 
Q 2769 4750 3195 4129 
Q 3622 3509 3622 2328 
Q 3622 1225 3098 567 
Q 2575 -91 1691 -91 
Q 1453 -91 1209 -44 
Q 966 3 703 97 
z
M 1959 2075 
Q 2384 2075 2632 2365 
Q 2881 2656 2881 3163 
Q 2881 3666 2632 3958 
Q 2384 4250 1959 4250 
Q 1534 4250 1286 3958 
Q 1038 3666 1038 3163 
Q 1038 2656 1286 2365 
Q 1534 2075 1959 2075 
z
" transform="scale(0.015625)"/>
      </defs>
      <use xlink:href="#DejaVuSans-39"/>
     </g>
    </g>
   </g>
   <g id="text_11">
    <g clip-path="url(#pcef000eb9c)">
     <!-- 10 -->
     <g transform="translate(228.525 260.311977) scale(0.12 -0.12)">
      <use xlink:href="#DejaVuSans-31"/>
      <use xlink:href="#DejaVuSans-30" x="63.623047"/>
     </g>
    </g>
   </g>
   <g id="text_12">
    <g clip-path="url(#pcef000eb9c)">
     <!-- 11 -->
     <g transform="translate(228.525 287.802886) scale(0.12 -0.12)">
      <use xlink:href="#DejaVuSans-31"/>
      <use xlink:href="#DejaVuSans-31" x="63.623047"/>
     </g>
    </g>
   </g>
   <g id="text_13">
    <g clip-path="url(#pcef000eb9c)">
     <!-- 12 -->
     <g transform="translate(343.30186 274.057432) scale(0.12 -0.12)">
      <use xlink:href="#DejaVuSans-31"/>
      <use xlink:href="#DejaVuSans-32" x="63.623047"/>
     </g>
    </g>
   </g>
   <g id="text_14">
    <g clip-path="url(#pcef000eb9c)">
     <!-- 13 -->
     <g transform="translate(376.095248 246.566523) scale(0.12 -0.12)">
      <use xlink:href="#DejaVuSans-31"/>
      <use xlink:href="#DejaVuSans-33" x="63.623047"/>
     </g>
    </g>
   </g>
   <g id="text_15">
    <g clip-path="url(#pcef000eb9c)">
     <!-- 14 -->
     <g transform="translate(343.30186 219.075614) scale(0.12 -0.12)">
      <use xlink:href="#DejaVuSans-31"/>
      <use xlink:href="#DejaVuSans-34" x="63.623047"/>
     </g>
    </g>
   </g>
   <g id="text_16">
    <g clip-path="url(#pcef000eb9c)">
     <!-- 15 -->
     <g transform="translate(376.095248 191.584705) scale(0.12 -0.12)">
      <use xlink:href="#DejaVuSans-31"/>
      <use xlink:href="#DejaVuSans-35" x="63.623047"/>
     </g>
    </g>
   </g>
   <g id="text_17">
    <g clip-path="url(#pcef000eb9c)">
     <!-- 16 -->
     <g transform="translate(343.30186 164.093795) scale(0.12 -0.12)">
      <use xlink:href="#DejaVuSans-31"/>
      <use xlink:href="#DejaVuSans-36" x="63.623047"/>
     </g>
    </g>
   </g>
   <g id="text_18">
    <g clip-path="url(#pcef000eb9c)">
     <!-- 17 -->
     <g transform="translate(376.095248 136.602886) scale(0.12 -0.12)">
      <use xlink:href="#DejaVuSans-31"/>
      <use xlink:href="#DejaVuSans-37" x="63.623047"/>
     </g>
    </g>
   </g>
   <g id="text_19">
    <g clip-path="url(#pcef000eb9c)">
     <!-- 18 -->
     <g transform="translate(343.30186 109.111977) scale(0.12 -0.12)">
      <use xlink:href="#DejaVuSans-31"/>
      <use xlink:href="#DejaVuSans-38" x="63.623047"/>
     </g>
    </g>
   </g>
   <g id="text_20">
    <g clip-path="url(#pcef000eb9c)">
     <!-- 19 -->
     <g transform="translate(343.30186 81.621068) scale(0.12 -0.12)">
      <use xlink:href="#DejaVuSans-31"/>
      <use xlink:href="#DejaVuSans-39" x="63.623047"/>
     </g>
    </g>
   </g>
  </g>
 </g>
 <defs>
  <clipPath id="pcef000eb9c">
   <rect x="57.6" y="41.472" width="357.12" height="266.112"/>
  </clipPath>
 </defs>
</svg>
